<svg xmlns="http://www.w3.org/2000/svg" viewBox="0 0 780.5 42.7"><defs><style>.cls-1{fill:#ffffff;}</style></defs><g id="Layer_2" data-name="Layer 2"><g id="Logo"><path class="cls-1" d="M3.7,35.4a3.41,3.41,0,0,0-2.5,1.1A3.58,3.58,0,0,0,.1,39a3.32,3.32,0,0,0,1,2.5,3.63,3.63,0,0,0,2.6,1.1,3.41,3.41,0,0,0,2.5-1.1,3.63,3.63,0,0,0,1.1-2.6,3.41,3.41,0,0,0-1.1-2.5,3.74,3.74,0,0,0-2.5-1Z"/><path class="cls-1" d="M3.7,7.3A3.41,3.41,0,0,0,6.2,6.2,3.58,3.58,0,0,0,7.3,3.7,3.63,3.63,0,0,0,6.2,1.1,3.62,3.62,0,0,0,1,1.1,3.47,3.47,0,0,0,0,3.6,3.32,3.32,0,0,0,1,6.1,3.38,3.38,0,0,0,3.7,7.3Z"/><path class="cls-1" d="M3.7,17.8a3.63,3.63,0,0,0-2.6,1.1,3.47,3.47,0,0,0-1,2.5,3.32,3.32,0,0,0,1,2.5A3.63,3.63,0,0,0,3.7,25a3.41,3.41,0,0,0,2.5-1.1,3.58,3.58,0,0,0,1.1-2.5,3.63,3.63,0,0,0-1.1-2.6,3.32,3.32,0,0,0-2.5-1Z"/><path class="cls-1" d="M52.3,38.6h-.2a7.59,7.59,0,0,1-3.2,2.9,11.48,11.48,0,0,1-5,1.1,12.93,12.93,0,0,1-3.3-.4,10.08,10.08,0,0,1-3.2-1.4A7.18,7.18,0,0,1,35,38.3a7.38,7.38,0,0,1-1-3.8,6.6,6.6,0,0,1,1.7-4.7A10.92,10.92,0,0,1,40,27.1a24.79,24.79,0,0,1,5.8-1.2c2.1-.2,4.2-.3,6.2-.3v-.7a4,4,0,0,0-1.8-3.6A7.39,7.39,0,0,0,46,20.1a9.34,9.34,0,0,0-4,.9,12.68,12.68,0,0,0-3.2,2.1l-3.4-4A14.88,14.88,0,0,1,40.5,16a17,17,0,0,1,5.9-1,13.54,13.54,0,0,1,5.7,1,9.84,9.84,0,0,1,3.6,2.6,8.38,8.38,0,0,1,1.8,3.5A17.37,17.37,0,0,1,58,26V41.9H51.9V38.6ZM52.2,30H50.7c-1.1,0-2.2,0-3.3.1a15.16,15.16,0,0,0-3.2.6A5.53,5.53,0,0,0,41.8,32a2.76,2.76,0,0,0-1,2.3,2.93,2.93,0,0,0,.4,1.6,2.13,2.13,0,0,0,1.1,1,3.33,3.33,0,0,0,1.5.5,8.75,8.75,0,0,0,1.6.2,6.74,6.74,0,0,0,5.1-1.8,6.52,6.52,0,0,0,1.7-4.9Z"/><path class="cls-1" d="M66,15.8h6.2V20h.1a9,9,0,0,1,3-3.5A8.54,8.54,0,0,1,80.4,15a9.86,9.86,0,0,1,4.4.9,8.86,8.86,0,0,1,3,2.4,8.39,8.39,0,0,1,1.7,3.4,13.06,13.06,0,0,1,.5,3.9V41.9H83.5V27.4a19.42,19.42,0,0,0-.2-2.4,5.5,5.5,0,0,0-2.2-4,4.62,4.62,0,0,0-2.5-.7,5.4,5.4,0,0,0-2.7.6A6,6,0,0,0,74,22.5a6.14,6.14,0,0,0-1.1,2.3,7.83,7.83,0,0,0-.4,2.6V41.8H66Z"/><path class="cls-1" d="M96.1,28.7a14.34,14.34,0,0,1,1.1-5.6,11.92,11.92,0,0,1,3-4.3,14.84,14.84,0,0,1,4.5-2.8,14.51,14.51,0,0,1,5.5-1,14.16,14.16,0,0,1,5.5,1,14.84,14.84,0,0,1,4.5,2.8,11.92,11.92,0,0,1,3,4.3,14.71,14.71,0,0,1,1.1,5.6,15.23,15.23,0,0,1-1.1,5.7,13.73,13.73,0,0,1-3,4.4,15.12,15.12,0,0,1-4.5,2.9,14.51,14.51,0,0,1-5.5,1,14.16,14.16,0,0,1-5.5-1,13.38,13.38,0,0,1-4.5-2.9,12.3,12.3,0,0,1-3-4.4A14.85,14.85,0,0,1,96.1,28.7Zm6.7,0a10.47,10.47,0,0,0,.5,3,8.67,8.67,0,0,0,1.4,2.7,7.4,7.4,0,0,0,2.3,2,7.12,7.12,0,0,0,3.4.8,6.82,6.82,0,0,0,5.7-2.8,8.67,8.67,0,0,0,1.4-2.7,10.47,10.47,0,0,0,.5-3,10.47,10.47,0,0,0-.5-3,8.67,8.67,0,0,0-1.4-2.7,6.69,6.69,0,0,0-5.7-2.6,7.39,7.39,0,0,0-3.4.7,7.1,7.1,0,0,0-2.3,1.9,8.67,8.67,0,0,0-1.4,2.7A7.89,7.89,0,0,0,102.8,28.7Z"/><path class="cls-1" d="M127.1,21V15.8h4.6V8.2h6.4v7.6h6.5V21h-6.5V33.1a6.24,6.24,0,0,0,.6,2.9c.4.8,1.4,1.1,2.8,1.1a7.08,7.08,0,0,0,1.4-.1,5.73,5.73,0,0,0,1.4-.4l.2,5.1a10.81,10.81,0,0,1-2.1.5,19.53,19.53,0,0,1-2.3.2,9.94,9.94,0,0,1-4.2-.7,7.53,7.53,0,0,1-2.6-2,7.62,7.62,0,0,1-1.3-2.9,19.82,19.82,0,0,1-.4-3.6V21Z"/><path class="cls-1" d="M163.8,15a9.86,9.86,0,0,1,4.4.9,8.86,8.86,0,0,1,3,2.4,8.39,8.39,0,0,1,1.7,3.4,13.06,13.06,0,0,1,.5,3.9V41.9h-6.5V27.5a19.42,19.42,0,0,0-.2-2.4,5.19,5.19,0,0,0-.7-2.2,4,4,0,0,0-1.5-1.7,4.62,4.62,0,0,0-2.5-.7,5.4,5.4,0,0,0-2.7.6,4.94,4.94,0,0,0-1.9,1.6,6.14,6.14,0,0,0-1.1,2.3,7.46,7.46,0,0,0-.4,2.6V41.9h-6.5V.7h6.5V19.4h.1a7.64,7.64,0,0,1,1.1-1.6,11.51,11.51,0,0,1,1.7-1.4,7.39,7.39,0,0,1,2.2-1A9.47,9.47,0,0,1,163.8,15Z"/><path class="cls-1" d="M206,29.1V30a2.77,2.77,0,0,1-.1.9H186.1a7.71,7.71,0,0,0,.7,2.6,5.51,5.51,0,0,0,1.7,2,7.55,7.55,0,0,0,2.3,1.3,8.76,8.76,0,0,0,6.8-.4,8.3,8.3,0,0,0,2.8-2.5l4.4,3.5c-2.6,3.5-6.3,5.2-11.2,5.2a14.67,14.67,0,0,1-5.6-1,12.21,12.21,0,0,1-7.3-7,15.32,15.32,0,0,1,0-11.4,13.49,13.49,0,0,1,2.9-4.4A11.85,11.85,0,0,1,188,16a14.16,14.16,0,0,1,5.5-1,13.48,13.48,0,0,1,5,.9,10.9,10.9,0,0,1,4,2.7,12,12,0,0,1,2.6,4.4A18.66,18.66,0,0,1,206,29.1Zm-6.5-2.9a6.72,6.72,0,0,0-.4-2.4,4.9,4.9,0,0,0-1.1-2,6.69,6.69,0,0,0-1.9-1.4,7.63,7.63,0,0,0-2.7-.5,7.31,7.31,0,0,0-5,1.8,6.6,6.6,0,0,0-2.3,4.5Z"/><path class="cls-1" d="M212.3,15.8h6.3v4.4h.1a9.12,9.12,0,0,1,3-3.7,7.84,7.84,0,0,1,4.6-1.4h.8c.3,0,.5.1.8.1v6a5.16,5.16,0,0,0-1.1-.2c-.3,0-.6-.1-.9-.1a7.38,7.38,0,0,0-3.6.8,5.78,5.78,0,0,0-2.1,2,5.77,5.77,0,0,0-1,2.3,8.08,8.08,0,0,0-.3,1.9v14h-6.5V15.8Z"/><path class="cls-1" d="M242,21V15.8h4.6V8.2H253v7.6h6.5V21H253V33.1a6.24,6.24,0,0,0,.6,2.9c.4.8,1.4,1.1,2.8,1.1a7.08,7.08,0,0,0,1.4-.1,5.73,5.73,0,0,0,1.4-.4l.2,5.1a10.81,10.81,0,0,1-2.1.5,19.53,19.53,0,0,1-2.3.2,9.94,9.94,0,0,1-4.2-.7,7.53,7.53,0,0,1-2.6-2,7.62,7.62,0,0,1-1.3-2.9,19.82,19.82,0,0,1-.4-3.6V21Z"/><path class="cls-1" d="M264.2,15.8h6.3v4.4h.1a9.12,9.12,0,0,1,3-3.7,7.84,7.84,0,0,1,4.6-1.4h.8c.3,0,.5.1.8.1v6a5.16,5.16,0,0,0-1.1-.2c-.3,0-.6-.1-.9-.1a7.38,7.38,0,0,0-3.6.8,5.78,5.78,0,0,0-2.1,2,5.77,5.77,0,0,0-1,2.3,8.08,8.08,0,0,0-.3,1.9v14h-6.5V15.8Z"/><path class="cls-1" d="M284.1,15.8h6.5V41.9h-6.5Z"/><path class="cls-1" d="M316.4,23a6.16,6.16,0,0,0-2.3-1.8,6.7,6.7,0,0,0-3.1-.7,6.83,6.83,0,0,0-3.2.7,7.1,7.1,0,0,0-2.3,1.9,8.45,8.45,0,0,0-1.3,2.7,10.32,10.32,0,0,0-.4,3,10.47,10.47,0,0,0,.5,3,8.67,8.67,0,0,0,1.4,2.7,7.1,7.1,0,0,0,2.3,1.9,6.57,6.57,0,0,0,3.2.7,8,8,0,0,0,3-.6,6.14,6.14,0,0,0,2.4-1.7l4.1,4.1a10.17,10.17,0,0,1-4.2,2.7,16.29,16.29,0,0,1-5.5,1,17.13,17.13,0,0,1-5.5-.9A12.88,12.88,0,0,1,301,39a11.49,11.49,0,0,1-3-4.4,15.58,15.58,0,0,1,0-11.5,12.3,12.3,0,0,1,3-4.4,14.36,14.36,0,0,1,4.4-2.8,14,14,0,0,1,5.4-1,15.51,15.51,0,0,1,5.6,1.1,10.42,10.42,0,0,1,4.3,3Z"/><path class="cls-1" d="M325.2.7h6.5v26h.2l9.9-11h8.4L338.9,27.5l12,14.3h-8.6L331.9,28.5h-.2V41.9h-6.5V.7Z"/><path class="cls-1" d="M368.7,22.7a8,8,0,0,0-2.4-2,6.22,6.22,0,0,0-3.3-.8,5.66,5.66,0,0,0-2.9.7,2.22,2.22,0,0,0-1.3,2.2,2.17,2.17,0,0,0,1.4,2.1c1,.4,2.4.8,4.2,1.3a17.1,17.1,0,0,1,3,.9,11.48,11.48,0,0,1,2.7,1.4,7,7,0,0,1,2,2.2,6.6,6.6,0,0,1,.8,3.2A8.85,8.85,0,0,1,372,38a7.81,7.81,0,0,1-2.4,2.7,10,10,0,0,1-3.5,1.5,18.41,18.41,0,0,1-4.1.5,17.13,17.13,0,0,1-5.9-1.1,12.29,12.29,0,0,1-4.8-3.2l4.3-4a9.1,9.1,0,0,0,2.8,2.3,8.3,8.3,0,0,0,3.9.9,5.9,5.9,0,0,0,1.4-.2,7.84,7.84,0,0,0,1.4-.5,2.86,2.86,0,0,0,1.4-2.5,2.29,2.29,0,0,0-1.5-2.3,24.4,24.4,0,0,0-4.5-1.4c-1-.2-1.9-.5-2.9-.8a6.77,6.77,0,0,1-2.5-1.4,6.84,6.84,0,0,1-1.7-2.1,7.09,7.09,0,0,1-.7-3.1,7.63,7.63,0,0,1,.9-3.8,7.49,7.49,0,0,1,2.4-2.6,9.88,9.88,0,0,1,3.3-1.5,15.83,15.83,0,0,1,3.8-.5,14.87,14.87,0,0,1,5.5,1,10.42,10.42,0,0,1,4.3,3Z"/><path class="cls-1" d="M393.1,21h-5V15.8h5V11.9a21.38,21.38,0,0,1,.5-4.5,10.09,10.09,0,0,1,1.7-3.8A9.17,9.17,0,0,1,398.5,1a12.15,12.15,0,0,1,5.1-1,9.72,9.72,0,0,1,1.8.1l1.5.3-.4,5.5-1.2-.3a5.7,5.7,0,0,0-1.3-.1,5.21,5.21,0,0,0-2.3.5,3.48,3.48,0,0,0-1.3,1.4,6,6,0,0,0-.6,1.9,15,15,0,0,0-.2,2v4.2h6v5.2h-6V41.6h-6.5Z"/><path class="cls-1" d="M408.2,28.7a14.34,14.34,0,0,1,1.1-5.6,11.92,11.92,0,0,1,3-4.3,14.84,14.84,0,0,1,4.5-2.8,14.51,14.51,0,0,1,5.5-1,14.16,14.16,0,0,1,5.5,1,14.84,14.84,0,0,1,4.5,2.8,11.92,11.92,0,0,1,3,4.3,14.71,14.71,0,0,1,1.1,5.6,15.23,15.23,0,0,1-1.1,5.7,13.73,13.73,0,0,1-3,4.4,15.12,15.12,0,0,1-4.5,2.9,14.51,14.51,0,0,1-5.5,1,14.16,14.16,0,0,1-5.5-1,13.38,13.38,0,0,1-4.5-2.9,12.3,12.3,0,0,1-3-4.4A14.85,14.85,0,0,1,408.2,28.7Zm6.6,0a10.47,10.47,0,0,0,.5,3,8.67,8.67,0,0,0,1.4,2.7,7.4,7.4,0,0,0,2.3,2,7.12,7.12,0,0,0,3.4.8,6.82,6.82,0,0,0,5.7-2.8,8.67,8.67,0,0,0,1.4-2.7,10.47,10.47,0,0,0,.5-3,10.47,10.47,0,0,0-.5-3,8.67,8.67,0,0,0-1.4-2.7,6.69,6.69,0,0,0-5.7-2.6,7.39,7.39,0,0,0-3.4.7,7.1,7.1,0,0,0-2.3,1.9,8.67,8.67,0,0,0-1.4,2.7A10.47,10.47,0,0,0,414.8,28.7Z"/><path class="cls-1" d="M442.9,15.8h6.3v4.4h.1a9.12,9.12,0,0,1,3-3.7,7.84,7.84,0,0,1,4.6-1.4h.8c.3,0,.5.1.8.1v6a5.16,5.16,0,0,0-1.1-.2c-.3,0-.6-.1-.9-.1a7.38,7.38,0,0,0-3.6.8,5.78,5.78,0,0,0-2.1,2,5.77,5.77,0,0,0-1,2.3,8.08,8.08,0,0,0-.3,1.9v14H443V15.8Z"/><path class="cls-1" d="M483,.7V19h.2a8,8,0,0,1,1.3-1.4,8.32,8.32,0,0,1,1.8-1.3,11.82,11.82,0,0,1,2.5-1,10.38,10.38,0,0,1,3.2-.4,12.27,12.27,0,0,1,5.1,1.1,11.78,11.78,0,0,1,4,2.9,12.83,12.83,0,0,1,2.6,4.4,16.65,16.65,0,0,1,0,10.8,12.83,12.83,0,0,1-2.6,4.4,12,12,0,0,1-4,3,11.87,11.87,0,0,1-5.4,1.1,11.67,11.67,0,0,1-5.2-1.2,9.18,9.18,0,0,1-3.8-3.5h-.1v3.9h-6.2V.7Zm14.9,28a10.47,10.47,0,0,0-.5-3A8.67,8.67,0,0,0,496,23a7.1,7.1,0,0,0-2.3-1.9,6.71,6.71,0,0,0-3.3-.7,6.6,6.6,0,0,0-3.2.8,7.78,7.78,0,0,0-2.4,2,7.2,7.2,0,0,0-1.5,2.7,10.47,10.47,0,0,0-.5,3,10.47,10.47,0,0,0,.5,3,8.92,8.92,0,0,0,1.5,2.7,8.76,8.76,0,0,0,2.4,1.9,6.57,6.57,0,0,0,3.2.7,6.71,6.71,0,0,0,3.3-.8,7.4,7.4,0,0,0,2.3-2,8.67,8.67,0,0,0,1.4-2.7A7.89,7.89,0,0,0,497.9,28.7Z"/><path class="cls-1" d="M510.9,15.8h6.3v4.4h.1a9.12,9.12,0,0,1,3-3.7,7.84,7.84,0,0,1,4.6-1.4h.8c.3,0,.5.1.8.1v6a5.16,5.16,0,0,0-1.1-.2c-.3,0-.6-.1-.9-.1a7.38,7.38,0,0,0-3.6.8,5.78,5.78,0,0,0-2.1,2,5.77,5.77,0,0,0-1,2.3,8.08,8.08,0,0,0-.3,1.9v14H511V15.8Z"/><path class="cls-1" d="M530.8,15.8h6.5V41.9h-6.5Z"/><path class="cls-1" d="M563.1,23a6.16,6.16,0,0,0-2.3-1.8,6.7,6.7,0,0,0-3.1-.7,6.83,6.83,0,0,0-3.2.7,7.1,7.1,0,0,0-2.3,1.9,8.45,8.45,0,0,0-1.3,2.7,10.32,10.32,0,0,0-.4,3,10.47,10.47,0,0,0,.5,3,8.67,8.67,0,0,0,1.4,2.7,7.1,7.1,0,0,0,2.3,1.9,6.57,6.57,0,0,0,3.2.7,8,8,0,0,0,3-.6,6.14,6.14,0,0,0,2.4-1.7l4.1,4.1a10.17,10.17,0,0,1-4.2,2.7,16.29,16.29,0,0,1-5.5,1,17.13,17.13,0,0,1-5.5-.9,12.88,12.88,0,0,1-4.5-2.7,11.49,11.49,0,0,1-3-4.4,15.58,15.58,0,0,1,0-11.5,12.3,12.3,0,0,1,3-4.4,14.36,14.36,0,0,1,4.4-2.8,14,14,0,0,1,5.4-1,15.51,15.51,0,0,1,5.6,1.1,10.42,10.42,0,0,1,4.3,3Z"/><path class="cls-1" d="M571.9.7h6.5v26h.2l9.9-11h8.4L585.6,27.5l12,14.3H589L578.6,28.5h-.2V41.9h-6.5Z"/><path class="cls-1" d="M615.3,22.7a8,8,0,0,0-2.4-2,6.22,6.22,0,0,0-3.3-.8,5.66,5.66,0,0,0-2.9.7,2.22,2.22,0,0,0-1.3,2.2,2.17,2.17,0,0,0,1.4,2.1c1,.4,2.4.8,4.2,1.3a17.1,17.1,0,0,1,3,.9,11.48,11.48,0,0,1,2.7,1.4,7,7,0,0,1,2,2.2,6.6,6.6,0,0,1,.8,3.2,8.85,8.85,0,0,1-.9,4.1,7.81,7.81,0,0,1-2.4,2.7,10,10,0,0,1-3.5,1.5,18.41,18.41,0,0,1-4.1.5,17.13,17.13,0,0,1-5.9-1.1,12.29,12.29,0,0,1-4.8-3.2l4.3-4a9.1,9.1,0,0,0,2.8,2.3,8.3,8.3,0,0,0,3.9.9,5.9,5.9,0,0,0,1.4-.2,7.84,7.84,0,0,0,1.4-.5,2.86,2.86,0,0,0,1.4-2.5,2.29,2.29,0,0,0-1.5-2.3,24.4,24.4,0,0,0-4.5-1.4c-1-.2-1.9-.5-2.9-.8a6.77,6.77,0,0,1-2.5-1.4,6.84,6.84,0,0,1-1.7-2.1,7.09,7.09,0,0,1-.7-3.1,7.63,7.63,0,0,1,.9-3.8,7.49,7.49,0,0,1,2.4-2.6,9.88,9.88,0,0,1,3.3-1.5,15.83,15.83,0,0,1,3.8-.5,14.87,14.87,0,0,1,5.5,1,10.42,10.42,0,0,1,4.3,3Z"/><path class="cls-1" d="M645.4.7V19h.2a8,8,0,0,1,1.3-1.4,8.32,8.32,0,0,1,1.8-1.3,11.82,11.82,0,0,1,2.5-1,10.38,10.38,0,0,1,3.2-.4,12.27,12.27,0,0,1,5.1,1.1,11.78,11.78,0,0,1,4,2.9,12.83,12.83,0,0,1,2.6,4.4,16.65,16.65,0,0,1,0,10.8,12.83,12.83,0,0,1-2.6,4.4,12,12,0,0,1-4,3,11.87,11.87,0,0,1-5.4,1.1,11.67,11.67,0,0,1-5.2-1.2,9.18,9.18,0,0,1-3.8-3.5h0v3.9h-6.2V.7Zm14.9,28a10.47,10.47,0,0,0-.5-3,8.67,8.67,0,0,0-1.4-2.7,7.1,7.1,0,0,0-2.3-1.9,6.71,6.71,0,0,0-3.3-.7,6.6,6.6,0,0,0-3.2.8,7.78,7.78,0,0,0-2.4,2,7.2,7.2,0,0,0-1.5,2.7,10.47,10.47,0,0,0-.5,3,10.47,10.47,0,0,0,.5,3,8.92,8.92,0,0,0,1.5,2.7,8.76,8.76,0,0,0,2.4,1.9,6.57,6.57,0,0,0,3.2.7,6.71,6.71,0,0,0,3.3-.8,7.4,7.4,0,0,0,2.3-2,8.67,8.67,0,0,0,1.4-2.7A7.89,7.89,0,0,0,660.3,28.7Z"/><path class="cls-1" d="M673.3,15.8h6.3v4.4h.1a9.12,9.12,0,0,1,3-3.7,7.84,7.84,0,0,1,4.6-1.4h.8c.3,0,.5.1.8.1v6a5.16,5.16,0,0,0-1.1-.2c-.3,0-.6-.1-.9-.1a7.38,7.38,0,0,0-3.6.8,5.78,5.78,0,0,0-2.1,2,5.77,5.77,0,0,0-1,2.3,8.08,8.08,0,0,0-.3,1.9v14h-6.5V15.8Z"/><path class="cls-1" d="M708.6,38.6h-.2a7.59,7.59,0,0,1-3.2,2.9,11.48,11.48,0,0,1-5,1.1,12.93,12.93,0,0,1-3.3-.4,10.08,10.08,0,0,1-3.2-1.4,7.18,7.18,0,0,1-2.4-2.5,7.38,7.38,0,0,1-1-3.8,6.6,6.6,0,0,1,1.7-4.7,10.92,10.92,0,0,1,4.3-2.7,24.79,24.79,0,0,1,5.8-1.2c2.1-.2,4.2-.3,6.2-.3v-.7a4,4,0,0,0-1.8-3.6,7.39,7.39,0,0,0-4.2-1.2,9.34,9.34,0,0,0-4,.9,12.68,12.68,0,0,0-3.2,2.1l-3.4-4a14.88,14.88,0,0,1,5.1-3.1,17,17,0,0,1,5.9-1,13.54,13.54,0,0,1,5.7,1,9.84,9.84,0,0,1,3.6,2.6,8.38,8.38,0,0,1,1.8,3.5,17.37,17.37,0,0,1,.5,3.9V41.9h-6.1V38.6Zm-.1-8.6H707c-1.1,0-2.2,0-3.3.1a15.16,15.16,0,0,0-3.2.6,5.53,5.53,0,0,0-2.4,1.3,2.76,2.76,0,0,0-1,2.3,2.93,2.93,0,0,0,.4,1.6,2.66,2.66,0,0,0,1.1,1,3.33,3.33,0,0,0,1.5.5,8.75,8.75,0,0,0,1.6.2,6.74,6.74,0,0,0,5.1-1.8,6.52,6.52,0,0,0,1.7-4.9V30Z"/><path class="cls-1" d="M722.3,15.8h6.2V20h.1a9,9,0,0,1,3-3.5,8.54,8.54,0,0,1,5.1-1.5,9.86,9.86,0,0,1,4.4.9,8.86,8.86,0,0,1,3,2.4,8.39,8.39,0,0,1,1.7,3.4,13.06,13.06,0,0,1,.5,3.9V41.9h-6.5V27.4a19.42,19.42,0,0,0-.2-2.4,5.5,5.5,0,0,0-2.2-4,4.62,4.62,0,0,0-2.5-.7,5.4,5.4,0,0,0-2.7.6,6,6,0,0,0-1.9,1.6,6.14,6.14,0,0,0-1.1,2.3,7.83,7.83,0,0,0-.4,2.6V41.8h-6.5v-26Z"/><path class="cls-1" d="M780.5,41.9h-6.2V38h-.1a9.18,9.18,0,0,1-3.8,3.5,11.36,11.36,0,0,1-5.2,1.2,13.35,13.35,0,0,1-5.4-1.1,10.83,10.83,0,0,1-4-3,13.85,13.85,0,0,1-2.6-4.4,16.65,16.65,0,0,1,0-10.8,13.85,13.85,0,0,1,2.6-4.4,12.84,12.84,0,0,1,4-2.9,12.63,12.63,0,0,1,5.1-1.1,10.38,10.38,0,0,1,3.2.4,14.47,14.47,0,0,1,2.5,1,8.32,8.32,0,0,1,1.8,1.3,16.61,16.61,0,0,1,1.3,1.4h.2V.7h6.5V41.9ZM759,28.7a10.47,10.47,0,0,0,.5,3,8.67,8.67,0,0,0,1.4,2.7,7.4,7.4,0,0,0,2.3,2,6.71,6.71,0,0,0,3.3.8,6.57,6.57,0,0,0,3.2-.7,8.76,8.76,0,0,0,2.4-1.9,7.2,7.2,0,0,0,1.5-2.7,10.47,10.47,0,0,0,.5-3,10.47,10.47,0,0,0-.5-3,8.92,8.92,0,0,0-1.5-2.7,9.14,9.14,0,0,0-2.4-2,6.6,6.6,0,0,0-3.2-.8,6.71,6.71,0,0,0-3.3.7,7.1,7.1,0,0,0-2.3,1.9,8.67,8.67,0,0,0-1.4,2.7A10.47,10.47,0,0,0,759,28.7Z"/></g></g></svg>
