<svg id="Layer_1" data-name="Layer 1" xmlns="http://www.w3.org/2000/svg" viewBox="0 0 196.08 55.75"><defs><style>.cls-1{fill:#fff;}</style></defs><path class="cls-1" d="M.34,9.7V38.8A9.7,9.7,0,0,0,10,48.5H22.17V0H10A9.7,9.7,0,0,0,.34,9.7ZM39.19,0H27V20.64H48.88V9.7A9.69,9.69,0,0,0,39.19,0ZM27,48.5H39.19a9.69,9.69,0,0,0,9.69-9.7V27.91H27V48.5Z" transform="translate(-0.34)"/><path class="cls-1" d="M64.87,19.43H72.6V48.58H64.87Z" transform="translate(-0.34)"/><path class="cls-1" d="M86.53,25.47H78.8v-6h7.73Zm0,23.11H78.8V28.05h7.73Z" transform="translate(-0.34)"/><path class="cls-1" d="M89.87,28.05h8.42l6.28,14.49,6.28-14.49h8.42L109.4,48.58H99.74Z" transform="translate(-0.34)"/><path class="cls-1" d="M130.34,25.47h-7.73v-6h7.73Zm0,23.11h-7.73V28.05h7.73Z" transform="translate(-0.34)"/><path class="cls-1" d="M136.1,28.05h7.73v3.3h.09c1.36-2.86,4.06-3.62,8.21-3.62,4.79,0,11.48.2,11.48,9.06V48.58h-7.74V36.79c0-2-1.61-3-5-3h-1.77c-3.3,0-5.28,1.53-5.28,4.47V48.58H136.1Z" transform="translate(-0.34)"/><path class="cls-1" d="M168.4,35.78c0-6.36,3.26-8,9.42-8h4.51c3.91,0,4.83.48,6.77,3.14h.08V28.05h7.25V47.3c0,4.26-1.37,8.45-11.08,8.45h-8.53c-5.2,0-8.14-1.25-8.14-6.4h8c0,1,.65,1.57,1.9,1.57h5.59c3.39,0,5-1.09,5-4.55V45c-1.53,1.53-2.82,2.13-6.93,2.13h-4.07c-7.49,0-9.78-3-9.78-8.53Zm16,5.8c3.82,0,4.71-1,4.71-4.11s-.89-4.19-4.71-4.19H180.6c-3.82,0-4.71,1-4.71,4.19s.89,4.11,4.71,4.11Z" transform="translate(-0.34)"/></svg>