<?xml version="1.0" encoding="UTF-8"?>
<svg id="b" data-name="Laag 2" xmlns="http://www.w3.org/2000/svg" xmlns:xlink="http://www.w3.org/1999/xlink" viewBox="0 0 372.83 138.03">
  <defs>
    <style>
      .e {
        fill: none;
      }

      .f {
        fill: #ffffff;
      }

      .g {
        fill: #ffffff;
      }

      .h {
        clip-path: url(#d);
      }
    </style>
    <clipPath id="d">
      <rect class="e" width="372.83" height="138.03"/>
    </clipPath>
  </defs>
  <g id="c" data-name="Laag 1">
    <g class="h">
      <path class="g" d="m161.11,64.61h-18.19v-4.06l4.86-1.75v-24.86l-4.91-1.65v-4.41h19.8c9.87,0,16.59,5.61,16.59,17.84,0,12.88-7.02,18.89-18.14,18.89m-1-31.97h-4.51v27.12h4.51c10.93,0,11.23-9.48,11.23-13.53s-.3-13.59-11.23-13.59"/>
      <path class="g" d="m217.63,33.89v17.19c0,4.11-.5,7.27-3.16,10.32-2.41,2.76-6.67,4.16-12.08,4.16-6.61,0-10.52-1.6-12.98-4.76-1.95-2.51-2.26-5.31-2.26-11.12v-15.79l-4.91-1.65v-4.41h17.59v4.41l-4.91,1.65v16.24c0,6.26.25,10.27,7.92,10.27,4.26,0,6.06-1.4,6.97-3.51,1-2.3.85-5.82.85-8.27v-14.73l-4.91-1.65v-4.41h16.79v4.41l-4.91,1.65Z"/>
      <polygon class="g" points="263.49 33.89 263.49 64.61 254.27 64.61 239.08 34.3 237.83 34.3 237.83 58.8 242.64 60.55 242.64 64.61 226.3 64.61 226.3 60.55 231.16 58.8 231.16 33.89 226.25 32.24 226.25 27.83 243.99 27.83 256.87 55.44 256.87 33.89 251.96 32.24 251.96 27.83 268.4 27.83 268.4 32.24 263.49 33.89"/>
      <path class="g" d="m303.12,52.13l.05,12.03s-5.61,1.25-12.18,1.25c-17.79,0-19.69-10.93-19.69-19.04,0-12.93,8.07-18.89,20.7-18.89,5.81,0,11.38,1.05,11.38,1.05v9.77h-6.31l-1.76-5.71s-2.3-.2-3.41-.2c-9.32,0-12.63,5.96-12.63,14.33,0,6.76,1.25,13.73,12.53,13.73,1.55,0,3.56-.2,3.56-.2v-14.58h13.13v4.61l-5.36,1.85Z"/>
      <polygon class="g" points="339.7 64.61 311.39 64.61 311.39 60.55 316.25 58.8 316.25 33.94 311.34 32.29 311.34 27.83 339.65 27.83 339.65 38 333.59 38 331.58 32.64 324.02 32.64 324.02 43.01 335.19 43.01 335.19 48.43 324.02 48.43 324.02 59.75 332.64 59.75 334.99 54.89 341.06 54.89 339.7 64.61"/>
      <polygon class="g" points="371.47 64.61 345.11 64.61 345.11 60.55 349.98 58.8 349.98 33.89 345.06 32.24 345.06 27.83 362.65 27.83 362.65 32.24 357.74 33.89 357.74 59.75 364.36 59.75 366.76 54.89 372.83 54.89 371.47 64.61"/>
      <polygon class="g" points="177.95 81 177.95 105.85 182.76 107.61 182.81 111.67 165.37 111.67 165.37 107.61 170.13 105.85 170.13 95.03 155.54 95.03 155.54 105.85 160.31 107.61 160.31 111.67 142.92 111.67 142.92 107.61 147.78 105.85 147.78 81 142.87 79.34 142.87 74.93 160.46 74.93 160.46 79.34 155.54 81 155.54 89.92 170.18 89.92 170.18 81 165.22 79.34 165.22 74.93 182.86 74.93 182.86 79.34 177.95 81"/>
      <path class="g" d="m203.45,112.52c-11.12-.05-17.24-6.86-17.19-19.09.05-12.18,6.26-18.94,17.39-18.89,11.12.05,17.29,6.87,17.24,19.1-.1,12.18-6.32,18.94-17.44,18.89m.2-32.87c-6.77-.05-9.32,5.16-9.37,13.88-.05,8.67,2.45,13.83,9.22,13.88,6.77.05,9.27-5.16,9.32-13.88.05-8.67-2.4-13.83-9.17-13.88"/>
      <polygon class="g" points="252.66 111.67 224.35 111.67 224.35 107.61 229.21 105.85 229.21 81 224.3 79.34 224.3 74.88 252.61 74.88 252.61 85.06 246.55 85.06 244.54 79.7 236.97 79.7 236.97 90.07 248.15 90.07 248.15 95.48 236.97 95.48 236.97 106.81 245.59 106.81 247.95 101.95 254.01 101.95 252.66 111.67"/>
      <polygon class="g" points="280.62 84.96 278.62 79.7 271.7 79.7 271.7 90.67 282.93 90.67 282.93 96.08 271.7 96.08 271.7 105.81 277.07 107.56 277.07 111.67 259.07 111.67 259.07 107.61 263.94 105.85 263.94 81 259.02 79.34 259.02 74.93 286.69 74.93 286.69 84.96 280.62 84.96"/>
      <polygon class="g" points="313.24 84.96 311.24 79.7 304.32 79.7 304.32 90.67 315.55 90.67 315.55 96.08 304.32 96.08 304.32 105.81 309.69 107.56 309.69 111.67 291.7 111.67 291.7 107.61 296.56 105.85 296.56 81 291.65 79.34 291.65 74.93 319.31 74.93 319.31 84.96 313.24 84.96"/>
      <polygon class="f" points="85.82 2.01 85.82 54.45 63.91 54.45 63.91 75.09 85.82 75.09 85.82 138.03 108.85 138.03 108.85 2.01 85.82 2.01"/>
      <path class="f" d="m53.7,22.64C53.7,0,30.68,2.01,30.68,2.01H0v20.65h30.68v94.73H0v20.64h30.68s23.03,0,23.03-20.67V22.64Z"/>
    </g>
  </g>
</svg>