<?xml version="1.0" encoding="UTF-8"?>
<svg id="b" data-name="Laag 2" xmlns="http://www.w3.org/2000/svg" viewBox="0 0 166.78 64.58">
  <defs>
    <style>
      .d {
        fill: #fff;
      }
    </style>
  </defs>
  <g id="c" data-name="Laag 1">
    <polygon class="d" points="23.52 15.89 23.53 27.53 30.32 27.53 30.32 0 23.53 0 23.53 10.43 11.89 10.43 11.89 0 5.09 0 5.09 27.53 11.89 27.53 11.88 15.89 23.52 15.89"/>
    <polygon class="d" points="55.3 0 36.53 0 36.53 27.53 55.98 27.53 55.98 22.52 43.41 22.52 43.41 15.81 54.71 15.81 54.71 10.66 43.41 10.66 43.41 4.87 55.3 4.87 55.3 0"/>
    <polygon class="d" points="75.1 16.49 84.95 0 77.48 0 71.7 11.05 65.92 0 58.36 0 68.21 16.41 68.21 27.53 75.1 27.53 75.1 16.49"/>
    <polygon class="d" points="95.4 0 88.53 0 88.53 27.53 107.64 27.53 107.64 22.35 95.4 22.35 95.4 0"/>
    <polygon class="d" points="130.59 0 111.81 0 111.81 27.53 131.27 27.53 131.27 22.52 118.69 22.52 118.69 15.81 129.99 15.81 129.99 10.66 118.69 10.66 118.69 4.87 130.59 4.87 130.59 0"/>
    <polygon class="d" points="155.09 17.68 144.32 0 136.13 0 136.13 27.53 142.55 27.53 142.55 8.66 154 27.53 161.67 27.53 161.67 0 155.09 0 155.09 17.68"/>
    <g>
      <polygon class="d" points="29.25 50.1 32.55 50.1 30.9 45.59 29.25 50.1"/>
      <path class="d" d="m114.74,45c-1.84,0-3.72,1.28-3.72,3.97s1.88,3.97,3.72,3.97,3.73-1.28,3.73-3.97-1.88-3.97-3.73-3.97Z"/>
      <path class="d" d="m0,32.48v32.1h166.78v-32.1H0Zm11.89,22.46h-2.39l-4.41-11.92h2.54l3.11,8.86,3.11-8.86h2.46l-4.42,11.92Zm22.43,0l-.99-2.72h-4.84l-.99,2.72h-2.46l4.57-11.92h2.69l4.54,11.92h-2.52Zm17.29.24c-3.16,0-4.56-2.03-4.74-3.73l2.15-.57c.1,1.18.93,2.24,2.61,2.24,1.24,0,1.93-.62,1.93-1.46,0-.69-.53-1.23-1.45-1.41l-1.66-.34c-1.9-.38-3.13-1.61-3.13-3.41,0-2.12,1.9-3.73,4.15-3.73,2.89,0,4,1.75,4.27,3.09l-2.07.64c-.12-.65-.66-1.68-2.17-1.68-1.13,0-1.87.72-1.87,1.51,0,.65.42,1.17,1.29,1.34l1.66.32c2.17.42,3.33,1.83,3.33,3.51,0,1.83-1.53,3.68-4.3,3.68Zm24.43-9.96h-3.76v9.72h-2.34v-9.72h-3.77v-2.2h9.87v2.2Zm16.14,7.86c2.21,0,3.07-1.48,3.2-2.32h-3.77v-2.02h5.95v6.2h-1.89l-.15-1.36c-.53.8-1.71,1.61-3.51,1.61-3.21,0-5.95-2.35-5.95-6.2s2.87-6.22,6.1-6.22,4.86,1.84,5.45,3.67l-2.22.79c-.3-1.06-1.3-2.29-3.23-2.29-1.8,0-3.75,1.22-3.75,4.05s1.77,4.09,3.77,4.09Zm22.55,2.1c-3.23,0-6.12-2.37-6.12-6.2s2.89-6.22,6.12-6.22,6.14,2.37,6.14,6.22-2.89,6.2-6.14,6.2Zm25.04-9.98h-5.15v2.72h4.66v2.07h-4.66v2.76h5.15v2.18h-7.47v-11.92h7.47v2.19Zm15.99,9.74h-4.26v-11.92h4.27c3.4,0,5.89,2.21,5.89,5.97s-2.5,5.95-5.9,5.95Z"/>
      <path class="d" d="m155.7,45.16h-1.87v7.62h1.86c1.95,0,3.58-1.21,3.58-3.8s-1.62-3.82-3.57-3.82Z"/>
    </g>
  </g>
</svg>