<?xml version="1.0" encoding="UTF-8"?> <svg xmlns="http://www.w3.org/2000/svg" viewBox="0 0 638.42 120.86"><defs><style>.cls-1{fill:#d91016;}</style></defs><title>cordeel-logo</title><g id="Laag_2" data-name="Laag 2"><g id="nieuw_logo" data-name="nieuw logo"><path d="M226,99.16c-.32,8.48-1.4,12.13-4.73,15.47-4.83,4.94-11.06,6.23-31,6.23-15.57,0-22.13-1.07-27.17-4.72-4.94-3.44-6.55-8.92-6.55-22.35,0-12.24,1.5-17.62,6-21.27,4.83-4,11.49-5.15,28.68-5.15,16.86,0,24.28,1.28,29.11,5.26,4.09,3.22,5.48,7.19,5.8,16.76H206.79c-.65-5.81-4.41-7.74-15.58-7.74-13.22,0-15.69,2-15.69,12.67,0,6.67,1.08,9.24,4.51,10.64,2.26,1,6.33,1.51,11.38,1.51,11.17,0,14.4-1.51,15.25-7.3H226Z"></path><path d="M299.71,72.08c5.16,3.76,6.55,8.38,6.55,21.16,0,14-1.29,18.69-5.91,22.56-4.83,4-11.17,5-30,5-19,0-25.35-1.07-30.19-5s-5.91-8.6-5.91-23.31c0-11.92,1.5-16.76,6.55-20.41,4.73-3.44,12.14-4.62,29.43-4.62S295,68.64,299.71,72.08ZM253.3,94.54c0,6.76.86,9,4.3,10.41,2.36,1.08,6.66,1.61,12.78,1.61,14.39,0,16.86-1.83,16.86-12.57,0-6.88-1.07-9.34-4.62-10.74-2.36-1-6.87-1.5-12.25-1.5C255.88,81.75,253.3,83.68,253.3,94.54Z"></path><path d="M334,68.75v7.63h1c3.54-6.45,8.92-8.91,19.55-8.91,15.36,0,20.51,5.15,20.51,20.41v3.44H357.07c0-7.52-2.15-9.56-10-9.56-4.3,0-7.84,1.29-9.66,3.65s-2.36,5.26-2.36,13.11v21H316V68.76H334Z"></path><path d="M453.87,119.57H435.93v-6.66h-1c-3.66,6.11-8.71,8-22.46,8s-20.3-1.4-24.71-5.37c-4.19-3.87-5.48-9-5.48-21.7,0-12.89,2-19,7.41-22.55,4.62-3,9.88-3.87,23-3.87,13.32,0,17.73,1.71,21.37,8.16h.75V47.93h19v71.64Zm-52.53-26c0,11.17,2.15,12.89,16.44,12.89,7,0,12.13-.86,14.29-2.36s2.9-4.09,2.9-10c0-10.53-2.48-12.46-16-12.46C403.92,81.64,401.34,83.36,401.34,93.57Z"></path><path d="M532.07,103.35c-1.4,14.07-8.38,17.51-35.55,17.51-14.72,0-21.7-1.29-26.32-4.72-4.94-3.76-6.45-8.82-6.45-21.82,0-13.63,1.5-18.69,6.87-22.44,4.93-3.44,11.28-4.51,27.82-4.51,17.19,0,23.2,1.07,27.82,4.83s6.23,9.45,6.23,21c0,.64,0,3-.11,5.16H482.76c0,5.15.53,6.88,2.36,8.27,2,1.5,6,2.15,12.89,2.15,12.14,0,14.4-.87,15.15-5.37h18.91ZM513.38,87.88c-.11-4-.32-4.95-1.51-6.12-1.72-1.83-5.59-2.58-13.1-2.58-12.79,0-15.79,1.62-16,8.71h30.61Z"></path><path d="M609.21,103.35c-1.4,14.07-8.38,17.51-35.56,17.51-14.72,0-21.7-1.29-26.32-4.72-5-3.76-6.45-8.82-6.45-21.82,0-13.63,1.5-18.69,6.88-22.44,4.93-3.44,11.28-4.51,27.82-4.51,17.19,0,23.19,1.07,27.82,4.83s6.23,9.45,6.23,21c0,.64,0,3-.11,5.16H559.89c0,5.15.53,6.88,2.36,8.27,2,1.5,6,2.15,12.89,2.15,12.14,0,14.4-.87,15.15-5.37h18.92ZM590.52,87.88c-.11-4-.32-4.95-1.51-6.12-1.71-1.83-5.58-2.58-13.1-2.58-12.79,0-15.79,1.62-16,8.71h30.61Z"></path><path d="M638.42,47.92v71.65h-19V47.92Z"></path><path class="cls-1" d="M0,24.09V96.37a24.08,24.08,0,0,0,24.08,24.08H54.21V0H24.08A24.09,24.09,0,0,0,0,24.09ZM96.47,0H66.26V51.26h54.3V24.08A24.1,24.1,0,0,0,96.47,0ZM66.26,120.45H96.47a24.08,24.08,0,0,0,24.08-24.08V69.32H66.25v51.13Z"></path></g></g></svg> 