<svg xmlns="http://www.w3.org/2000/svg" viewBox="0 0 419.05 42.52"><defs><style>.cls-1{fill:#041c2c;}.cls-2{fill:#f93822;}</style></defs><g id="Layer_2" data-name="Layer 2"><g id="Logo"><path class="cls-1" d="M419.05,18.87a9.3,9.3,0,0,0-4.26-3,15.91,15.91,0,0,0-5.52-1,14.64,14.64,0,0,0-3.81.49,10.54,10.54,0,0,0-3.32,1.49,7.63,7.63,0,0,0-2.36,2.59,7.44,7.44,0,0,0-.9,3.75,6.74,6.74,0,0,0,.65,3.1,6.43,6.43,0,0,0,1.74,2.09,9.28,9.28,0,0,0,2.48,1.36,20.8,20.8,0,0,0,2.85.84A24.38,24.38,0,0,1,411.09,32a2.43,2.43,0,0,1,1.49,2.34,2.64,2.64,0,0,1-.38,1.47,2.76,2.76,0,0,1-1,1,4.85,4.85,0,0,1-1.36.52,6.55,6.55,0,0,1-1.44.16,8.12,8.12,0,0,1-3.86-.92,8.62,8.62,0,0,1-2.83-2.34l-4.3,4a12.64,12.64,0,0,0,4.79,3.19,16.32,16.32,0,0,0,5.92,1.11,17.92,17.92,0,0,0,4.11-.46,10.15,10.15,0,0,0,3.48-1.5,7.58,7.58,0,0,0,2.39-2.69,8.36,8.36,0,0,0,.9-4,6.52,6.52,0,0,0-.76-3.24,7.06,7.06,0,0,0-2-2.22,10.89,10.89,0,0,0-2.72-1.45,22.44,22.44,0,0,0-3-.86,27.48,27.48,0,0,1-4.21-1.28,2.19,2.19,0,0,1-1.44-2.15,2.26,2.26,0,0,1,1.3-2.18,6.41,6.41,0,0,1,2.88-.65,6.77,6.77,0,0,1,3.32.84,7.72,7.72,0,0,1,2.39,2l4.24-3.75ZM371.42,41.76H378V28.38h.16l10.33,13.38h8.65l-12-14.3,11.31-11.8H388l-9.9,11H378V.65h-6.53V41.76ZM367.07,19a10.54,10.54,0,0,0-4.27-3,15.15,15.15,0,0,0-11-.1,13.44,13.44,0,0,0-4.43,2.77,13.25,13.25,0,0,0-3,4.35,14.19,14.19,0,0,0-1.11,5.71,14.52,14.52,0,0,0,1.11,5.82,13,13,0,0,0,3.05,4.35,12.88,12.88,0,0,0,4.51,2.71,16,16,0,0,0,5.46.93,15.52,15.52,0,0,0,5.47-1A10.94,10.94,0,0,0,367,38.88l-4.08-4.13a5.91,5.91,0,0,1-2.45,1.74,8.42,8.42,0,0,1-3,.59,6.85,6.85,0,0,1-3.24-.73,7.1,7.1,0,0,1-2.31-1.93,8.47,8.47,0,0,1-1.38-2.69,10.17,10.17,0,0,1-.47-3,10.82,10.82,0,0,1,.44-3A8.36,8.36,0,0,1,351.82,23a6.82,6.82,0,0,1,2.26-1.93,6.49,6.49,0,0,1,3.15-.74,7.09,7.09,0,0,1,3.1.74,5.7,5.7,0,0,1,2.28,1.82L367.07,19ZM330.32,41.76h6.52V15.66h-6.52v26.1Zm-19.9,0h6.52v-14a9.17,9.17,0,0,1,.27-1.9,6.93,6.93,0,0,1,1-2.34,6.37,6.37,0,0,1,2.12-1.95,6.83,6.83,0,0,1,3.58-.82,7,7,0,0,1,.9.06A7.86,7.86,0,0,1,326,21v-6a3.32,3.32,0,0,0-.76-.14l-.82,0a7.63,7.63,0,0,0-4.57,1.41,9.59,9.59,0,0,0-3,3.7h-.11V15.66h-6.25v26.1ZM297,31.64a8.41,8.41,0,0,1-1.38,2.72,7.34,7.34,0,0,1-2.34,2,7.53,7.53,0,0,1-6.53,0,7.85,7.85,0,0,1-2.42-1.93,8.62,8.62,0,0,1-1.52-2.69,9.34,9.34,0,0,1-.51-3,9.61,9.61,0,0,1,.51-3.05A8.39,8.39,0,0,1,284.34,23a8.25,8.25,0,0,1,2.42-2,6.68,6.68,0,0,1,3.21-.76,7.1,7.1,0,0,1,3.32.73,7,7,0,0,1,2.34,1.93A8.57,8.57,0,0,1,297,25.58a10.12,10.12,0,0,1,.47,3,10.3,10.3,0,0,1-.47,3m-21-31V41.76h6.2V37.84h.11a8.75,8.75,0,0,0,3.77,3.48,11.58,11.58,0,0,0,5.2,1.2,12.14,12.14,0,0,0,9.38-4.11,13.32,13.32,0,0,0,2.55-4.4,16,16,0,0,0,.9-5.41,15.51,15.51,0,0,0-.92-5.38,13.07,13.07,0,0,0-2.62-4.35,12.15,12.15,0,0,0-9.13-4,11.48,11.48,0,0,0-5.68,1.41,9.35,9.35,0,0,0-1.82,1.31A9.5,9.5,0,0,0,282.69,19h-.17V.65ZM242.5,41.76H249v-14a9.17,9.17,0,0,1,.27-1.9,7.1,7.1,0,0,1,1-2.34,6.56,6.56,0,0,1,2.12-1.95,6.89,6.89,0,0,1,3.59-.82,7,7,0,0,1,.9.06,7.86,7.86,0,0,1,1.12.21v-6a3.31,3.31,0,0,0-.77-.14l-.81,0a7.61,7.61,0,0,0-4.57,1.41,9.59,9.59,0,0,0-3,3.7h-.11V15.66H242.5v26.1ZM214.91,25.58a8.39,8.39,0,0,1,1.39-2.69A6.82,6.82,0,0,1,218.64,21a8.14,8.14,0,0,1,6.74,0,7,7,0,0,1,2.34,1.93,8.57,8.57,0,0,1,1.38,2.69,10.11,10.11,0,0,1,.46,3,10.29,10.29,0,0,1-.46,3,8.41,8.41,0,0,1-1.38,2.72,7.34,7.34,0,0,1-2.34,2,7.85,7.85,0,0,1-6.74,0,7.13,7.13,0,0,1-2.34-2,8.24,8.24,0,0,1-1.39-2.72,10.29,10.29,0,0,1-.46-3,10.11,10.11,0,0,1,.46-3m-6,8.67a13.23,13.23,0,0,0,3,4.38,13.72,13.72,0,0,0,4.51,2.86,15.44,15.44,0,0,0,11.09,0,13.62,13.62,0,0,0,4.51-2.86,13.23,13.23,0,0,0,3-4.38,13.83,13.83,0,0,0,1.12-5.65A13.7,13.7,0,0,0,235.08,23a13,13,0,0,0-7.53-7.09,16.18,16.18,0,0,0-11.09,0A13,13,0,0,0,208.93,23a13.7,13.7,0,0,0-1.12,5.63,13.83,13.83,0,0,0,1.12,5.65m-16.18,7.51h6.53V20.88h6V15.66h-6V11.42a12.74,12.74,0,0,1,.16-2,6,6,0,0,1,.63-1.91,3.6,3.6,0,0,1,1.33-1.41,4.28,4.28,0,0,1,2.28-.54,8,8,0,0,1,1.33.1,11.18,11.18,0,0,1,1.17.28l.44-5.55a10.48,10.48,0,0,0-1.5-.3A18.12,18.12,0,0,0,203.3,0a11.85,11.85,0,0,0-5.05,1A8.6,8.6,0,0,0,195,3.53a10.24,10.24,0,0,0-1.74,3.78,18.9,18.9,0,0,0-.52,4.49v3.86H187.8v5.22h4.95V41.76ZM130.88,18.87a9.38,9.38,0,0,0-4.27-3,15.91,15.91,0,0,0-5.52-1,14.69,14.69,0,0,0-3.81.49A10.39,10.39,0,0,0,114,16.88a7.66,7.66,0,0,0-2.37,2.59,7.44,7.44,0,0,0-.9,3.75,6.61,6.61,0,0,0,.66,3.1,6.19,6.19,0,0,0,1.74,2.09,9.22,9.22,0,0,0,2.47,1.36,21.22,21.22,0,0,0,2.85.84A24.13,24.13,0,0,1,122.91,32a2.43,2.43,0,0,1,1.5,2.34,2.64,2.64,0,0,1-.39,1.47,2.68,2.68,0,0,1-1,1,4.85,4.85,0,0,1-1.36.52,6.55,6.55,0,0,1-1.44.16,8.18,8.18,0,0,1-3.86-.92,8.62,8.62,0,0,1-2.83-2.34l-4.29,4A12.52,12.52,0,0,0,114,41.41,16.37,16.37,0,0,0,120,42.52a17.89,17.89,0,0,0,4.1-.46,10.15,10.15,0,0,0,3.48-1.5,7.48,7.48,0,0,0,2.39-2.69,8.36,8.36,0,0,0,.9-4,6.42,6.42,0,0,0-.76-3.24,7.15,7.15,0,0,0-2-2.22,11.25,11.25,0,0,0-2.72-1.45,23,23,0,0,0-3-.86,27.84,27.84,0,0,1-4.21-1.28,2.19,2.19,0,0,1-1.44-2.15,2.26,2.26,0,0,1,1.3-2.18,6.42,6.42,0,0,1,2.89-.65,6.73,6.73,0,0,1,3.31.84,7.76,7.76,0,0,1,2.4,2l4.24-3.75ZM83.25,41.76h6.52V28.38h.16l10.33,13.38h8.65l-12-14.3,11.31-11.8H99.83l-9.9,11h-.16V.65H83.25V41.76ZM78.89,19a10.57,10.57,0,0,0-4.26-3,14.89,14.89,0,0,0-5.58-1.08,14.72,14.72,0,0,0-5.41,1,13.44,13.44,0,0,0-4.43,2.77,13.25,13.25,0,0,0-3,4.35,14.19,14.19,0,0,0-1.11,5.71,14.52,14.52,0,0,0,1.11,5.82,13,13,0,0,0,3.05,4.35,12.88,12.88,0,0,0,4.51,2.71,16,16,0,0,0,5.47.93,15.47,15.47,0,0,0,5.46-1,10.86,10.86,0,0,0,4.16-2.69l-4.08-4.13a5.88,5.88,0,0,1-2.44,1.74,8.47,8.47,0,0,1-3,.59A6.78,6.78,0,0,1,66,36.35a6.9,6.9,0,0,1-2.31-1.93,8.5,8.5,0,0,1-1.39-2.69,10.16,10.16,0,0,1-.46-3,10.8,10.8,0,0,1,.43-3A8.57,8.57,0,0,1,63.64,23a6.82,6.82,0,0,1,2.26-1.93,6.54,6.54,0,0,1,3.15-.74,7.06,7.06,0,0,1,3.1.74,5.8,5.8,0,0,1,2.29,1.82L78.89,19ZM42.14,41.76h6.52V15.66H42.14v26.1Zm-19.9,0h6.52v-14a8.65,8.65,0,0,1,.28-1.9,6.9,6.9,0,0,1,1-2.34,6.46,6.46,0,0,1,2.12-1.95,6.84,6.84,0,0,1,3.59-.82,6.77,6.77,0,0,1,.89.06,7.86,7.86,0,0,1,1.12.21v-6a3.22,3.22,0,0,0-.76-.14l-.82,0a7.63,7.63,0,0,0-4.57,1.41,9.68,9.68,0,0,0-3,3.7h-.11V15.66H22.24v26.1ZM4.57,20.88V33.06a16.73,16.73,0,0,0,.35,3.56,7.41,7.41,0,0,0,1.31,2.94,6.39,6.39,0,0,0,2.58,2,10.42,10.42,0,0,0,4.24.73,14.11,14.11,0,0,0,2.28-.19,10.76,10.76,0,0,0,2.07-.52l-.22-5.1a5.72,5.72,0,0,1-1.36.4,8.19,8.19,0,0,1-1.41.14c-1.45,0-2.39-.38-2.8-1.14A5.94,5.94,0,0,1,11,33V20.88h6.53V15.66H11V8.1H4.57v7.56H0v5.22Z"/><path class="cls-2" d="M159.32,35.31a3.5,3.5,0,0,0-2.53,1.06,3.46,3.46,0,0,0-1,2.53,3.59,3.59,0,0,0,1,2.53,3.42,3.42,0,0,0,2.55,1.09,3.53,3.53,0,0,0,2.55-1.06,3.59,3.59,0,0,0,0-5.09,3.53,3.53,0,0,0-2.57-1.06Z"/><path class="cls-2" d="M159.32,7.21a3.53,3.53,0,0,0,2.55-1.06,3.44,3.44,0,0,0,1.07-2.53,3.49,3.49,0,0,0-1.05-2.56A3.51,3.51,0,0,0,159.32,0a3.4,3.4,0,0,0-2.57,1.1,3.57,3.57,0,0,0-1,2.52,3.52,3.52,0,0,0,1,2.51,3.46,3.46,0,0,0,2.55,1.08Z"/><path class="cls-2" d="M159.32,17.66a3.43,3.43,0,0,0-2.57,1.09,3.61,3.61,0,0,0-1,2.52,3.55,3.55,0,0,0,1,2.52,3.45,3.45,0,0,0,2.55,1.07,3.52,3.52,0,0,0,2.55-1.05,3.6,3.6,0,0,0,0-5.1,3.52,3.52,0,0,0-2.57-1.05Z"/></g></g></svg>